# xmcd
#
# Track frame offsets:
#	150
#	16460
#	34335
#	57850
#	75980
#	91485
#	113770
#	131015
#
# Disc length: 2026 seconds
#
# Revision: 0
# Processed by: cddbd v1.4PL0 Copyright (c) Steve Scherf et al.
# Submitted via: audiograbber 1.82.01
#
DISCID=5e07e808
DTITLE=Najwa Karam - Nadmanah
DYEAR=2001
DGENRE=
TTITLE0=Yal Haneet
TTITLE1=Nadmaneh
TTITLE2=Ashikah
TTITLE3=Ana Meen
TTITLE4=El Jar Abel El Dar
TTITLE5=Roba3i Wa Khomasi
TTITLE6=Makssar 3asa
TTITLE7=Aashikah (Instrumental)
EXTD=
EXTT0=
EXTT1=
EXTT2=
EXTT3=
EXTT4=
EXTT5=
EXTT6=
EXTT7=
PLAYORDER=
